<svg width="100" height="100" viewBox="0 0 100 100" fill="none" xmlns="http://www.w3.org/2000/svg">
<path d="M68.1666 58.3334C68.4999 55.5834 68.7499 52.8334 68.7499 50C68.7499 47.1667 68.4999 44.4167 68.1666 41.6667H82.2499C82.9166 44.3334 83.3333 47.125 83.3333 50C83.3333 52.875 82.9166 55.6667 82.2499 58.3334M60.7916 81.5C63.2916 76.875 65.2083 71.875 66.5416 66.6667H78.8333C74.7965 73.6179 68.3921 78.8834 60.7916 81.5ZM59.7499 58.3334H40.2499C39.8333 55.5834 39.5833 52.8334 39.5833 50C39.5833 47.1667 39.8333 44.375 40.2499 41.6667H59.7499C60.1249 44.375 60.4166 47.1667 60.4166 50C60.4166 52.8334 60.1249 55.5834 59.7499 58.3334ZM49.9999 83.1667C46.5416 78.1667 43.7499 72.625 42.0416 66.6667H57.9583C56.2499 72.625 53.4583 78.1667 49.9999 83.1667ZM33.3333 33.3334H21.1666C25.1609 26.3627 31.561 21.0885 39.1666 18.5C36.6666 23.125 34.7916 28.125 33.3333 33.3334ZM21.1666 66.6667H33.3333C34.7916 71.875 36.6666 76.875 39.1666 81.5C31.576 78.8846 25.1845 73.6175 21.1666 66.6667ZM17.7499 58.3334C17.0833 55.6667 16.6666 52.875 16.6666 50C16.6666 47.125 17.0833 44.3334 17.7499 41.6667H31.8333C31.4999 44.4167 31.2499 47.1667 31.2499 50C31.2499 52.8334 31.4999 55.5834 31.8333 58.3334M49.9999 16.7917C53.4583 21.7917 56.2499 27.375 57.9583 33.3334H42.0416C43.7499 27.375 46.5416 21.7917 49.9999 16.7917ZM78.8333 33.3334H66.5416C65.2355 28.1734 63.3046 23.1921 60.7916 18.5C68.4583 21.125 74.8333 26.4167 78.8333 33.3334ZM49.9999 8.33337C26.9583 8.33337 8.33325 27.0834 8.33325 50C8.33325 61.0507 12.7231 71.6488 20.5371 79.4628C24.4062 83.3319 28.9995 86.4011 34.0548 88.495C39.11 90.589 44.5282 91.6667 49.9999 91.6667C61.0506 91.6667 71.6487 87.2768 79.4627 79.4628C87.2767 71.6488 91.6666 61.0507 91.6666 50C91.6666 44.5283 90.5889 39.1101 88.4949 34.0549C86.401 28.9997 83.3318 24.4064 79.4627 20.5373C75.5936 16.6682 71.0003 13.599 65.9451 11.5051C60.8898 9.41111 55.4717 8.33337 49.9999 8.33337Z" fill="#F1F1F1"/>
</svg>
