<svg width="30" height="30" viewBox="0 0 30 30" fill="none" xmlns="http://www.w3.org/2000/svg">
<path d="M23.4124 6.7625L21.8124 8.0125L14.9999 13.075L8.18744 7.9625L6.58744 6.7125C6.21051 6.40068 5.75038 6.2063 5.26405 6.15343C4.77772 6.10057 4.28657 6.19155 3.85145 6.4151C3.41633 6.63865 3.05635 6.98495 2.81611 7.41109C2.57588 7.83723 2.46595 8.32449 2.49994 8.8125V23.3C2.49994 23.7509 2.67905 24.1833 2.99786 24.5021C3.31667 24.8209 3.74907 25 4.19994 25H8.18744V15.35L14.9999 20.4625L21.8124 15.35V25H25.7999C26.2508 25 26.6832 24.8209 27.002 24.5021C27.3208 24.1833 27.4999 23.7509 27.4999 23.3V8.8125C27.5234 8.3287 27.4058 7.8485 27.1615 7.43028C26.9172 7.01205 26.5566 6.67381 26.1236 6.45666C25.6907 6.23952 25.204 6.15282 24.7226 6.20712C24.2413 6.26141 23.7861 6.45436 23.4124 6.7625Z" fill="#F1F1F1"/>
</svg>
