<svg width="18" height="11" viewBox="0 0 18 11" fill="none" xmlns="http://www.w3.org/2000/svg">
<path d="M1 11C0.71667 11 0.479337 10.912 0.288003 10.736C0.0966702 10.56 0.000670115 10.3424 3.44827e-06 10.0833C-0.000663218 9.82421 0.0953369 9.60666 0.288003 9.43066C0.48067 9.25466 0.718003 9.16666 1 9.16666H17C17.2833 9.16666 17.521 9.25466 17.713 9.43066C17.905 9.60666 18.0007 9.82421 18 10.0833C17.9993 10.3424 17.9033 10.5603 17.712 10.7369C17.5207 10.9135 17.2833 11.0012 17 11H1ZM1 6.41666C0.71667 6.41666 0.479337 6.32866 0.288003 6.15266C0.0966702 5.97666 0.000670115 5.7591 3.44827e-06 5.49999C-0.000663218 5.24088 0.0953369 5.02333 0.288003 4.84733C0.48067 4.67133 0.718003 4.58333 1 4.58333H17C17.2833 4.58333 17.521 4.67133 17.713 4.84733C17.905 5.02333 18.0007 5.24088 18 5.49999C17.9993 5.7591 17.9033 5.97697 17.712 6.15358C17.5207 6.33019 17.2833 6.41788 17 6.41666H1ZM1 1.83333C0.71667 1.83333 0.479337 1.74533 0.288003 1.56933C0.0966702 1.39333 0.000670115 1.17578 3.44827e-06 0.916666C-0.000663218 0.657555 0.0953369 0.44 0.288003 0.264C0.48067 0.088 0.718003 0 1 0H17C17.2833 0 17.521 0.088 17.713 0.264C17.905 0.44 18.0007 0.657555 18 0.916666C17.9993 1.17578 17.9033 1.39364 17.712 1.57025C17.5207 1.74686 17.2833 1.83455 17 1.83333H1Z" fill="#F1F1F1"/>
</svg>
